<svg xmlns="http://www.w3.org/2000/svg" viewBox="0 0 760 760" fill="none">
  <g stroke="#F7F7F5" stroke-linejoin="miter" stroke-linecap="square">
    <path d="M380 90 628 232v286L380 662 132 518V232L380 90Z" stroke-width="24"/>
    <path d="M132 232 380 374l248-142M380 374v288" stroke-width="18"/>
    <path d="m230 302 72 42 78-45 78 45 72-42" stroke-width="16" opacity=".9"/>
    <path d="M210 398v126M210 398l56 32 54 102 54-40 42 24V398" stroke-width="24"/>
    <path d="M466 404h94M466 454h94M466 504h68" stroke-width="18"/>
    <path d="M548 548h12v12h-12zM548 578h12v12h-12zM548 608h12v12h-12z" fill="#F7F7F5" stroke="none"/>
  </g>

  <g stroke="#F7F7F5" stroke-opacity=".42" stroke-width="2">
    <path d="M12 138h94v96h48"/>
    <path d="M610 62h116v92h-58v86"/>
    <path d="M38 650h128v-66h62"/>
    <path d="M612 624h102v-110h-58"/>
  </g>

  <g fill="#F7F7F5">
    <rect x="7" y="133" width="12" height="12"/><rect x="148" y="228" width="12" height="12"/>
    <rect x="603" y="55" width="12" height="12"/><rect x="662" y="234" width="12" height="12"/>
    <rect x="31" y="643" width="12" height="12"/><rect x="222" y="577" width="12" height="12"/>
    <rect x="605" y="617" width="12" height="12"/><rect x="650" y="508" width="12" height="12"/>
    <rect x="92" y="354" width="7" height="7" fill-opacity=".7"/>
    <rect x="642" y="348" width="8" height="8" fill-opacity=".75"/>
    <rect x="78" y="478" width="5" height="5" fill-opacity=".5"/>
    <rect x="684" y="460" width="5" height="5" fill-opacity=".5"/>
  </g>

  <g fill="#F7F7F5" fill-opacity=".18">
    <rect x="86" y="286" width="9" height="9"/><rect x="100" y="286" width="9" height="9"/><rect x="114" y="286" width="9" height="9"/>
    <rect x="86" y="300" width="9" height="9"/><rect x="100" y="300" width="9" height="9"/><rect x="114" y="300" width="9" height="9"/>
    <rect x="628" y="558" width="9" height="9"/><rect x="642" y="558" width="9" height="9"/><rect x="656" y="558" width="9" height="9"/>
    <rect x="628" y="572" width="9" height="9"/><rect x="642" y="572" width="9" height="9"/><rect x="656" y="572" width="9" height="9"/>
  </g>
</svg>